<svg width="20" height="20" viewBox="0 0 20 20" fill="none" xmlns="http://www.w3.org/2000/svg">
<mask id="mask0_72_486" style="mask-type:luminance" maskUnits="userSpaceOnUse" x="0" y="0" width="20" height="20">
<path d="M0 0H20V20H0V0Z" fill="white"/>
</mask>
<g mask="url(#mask0_72_486)">
<path d="M9.99859 0C4.47633 0 0 4.47664 0 9.99859C0 15.5209 4.47633 19.9972 9.99859 19.9972C15.5209 19.9972 19.9972 15.5209 19.9972 9.99859C19.9972 4.47664 15.5209 0 9.99859 0ZM13.998 10.9985H8.4128L9.99859 12.5843C10.3885 12.9743 10.3885 13.6083 9.99859 13.998C9.60864 14.3879 8.97488 14.3879 8.58493 13.998L5.29223 10.7056C4.90134 10.3147 4.90134 9.68187 5.29223 9.29192L8.58493 5.99922C8.97488 5.60926 9.60864 5.60926 9.99859 5.99922C10.3885 6.38917 10.3885 7.02324 9.99859 7.41319L8.4128 8.99898H13.998C14.55 8.99898 14.9979 9.44683 14.9979 9.99859C14.9979 10.5507 14.55 10.9985 13.998 10.9985Z" fill="white"/>
</g>
</svg>
